<?xml version="1.0" encoding="utf-8"?><!-- Uploaded to: SVG Repo, www.svgrepo.com, Generator: SVG Repo Mixer Tools -->
<svg width="800px" height="800px" viewBox="0 0 24 24" fill="none" xmlns="http://www.w3.org/2000/svg">
<path fill-rule="evenodd" clip-rule="evenodd" d="M7.12821 10.9744C7.12821 10.5495 7.4726 10.2051 7.89744 10.2051H16.1026C16.5274 10.2051 16.8718 10.5495 16.8718 10.9744C16.8718 11.3992 16.5274 11.7436 16.1026 11.7436H7.89744C7.4726 11.7436 7.12821 11.3992 7.12821 10.9744Z" fill="#030D45"/>
<path fill-rule="evenodd" clip-rule="evenodd" d="M7.12821 15.0769C7.12821 14.6521 7.4726 14.3077 7.89744 14.3077H12C12.4248 14.3077 12.7692 14.6521 12.7692 15.0769C12.7692 15.5018 12.4248 15.8462 12 15.8462H7.89744C7.4726 15.8462 7.12821 15.5018 7.12821 15.0769Z" fill="#030D45"/>
<path fill-rule="evenodd" clip-rule="evenodd" d="M12 4.5641C9.82905 4.5641 6.86302 4.75222 5.0118 4.88767C4.40256 4.93225 3.92251 5.40832 3.87304 6.01602C3.73025 7.76999 3.53846 10.5043 3.53846 12.5128C3.53846 14.5213 3.73025 17.2556 3.87304 19.0096C3.92251 19.6173 4.40256 20.0934 5.0118 20.138C6.86302 20.2734 9.82905 20.4615 12 20.4615C14.1709 20.4615 17.137 20.2734 18.9882 20.138C19.5974 20.0934 20.0775 19.6173 20.127 19.0096C20.2698 17.2556 20.4615 14.5213 20.4615 12.5128C20.4615 10.5043 20.2698 7.76999 20.127 6.01602C20.0775 5.40832 19.5974 4.93225 18.9882 4.88767C17.137 4.75222 14.1709 4.5641 12 4.5641ZM4.89953 3.35331C6.75159 3.2178 9.76733 3.02564 12 3.02564C14.2327 3.02564 17.2484 3.2178 19.1005 3.35331C20.4649 3.45315 21.5493 4.52644 21.6604 5.89119C21.8033 7.64655 22 10.4359 22 12.5128C22 14.5898 21.8033 17.3791 21.6604 19.1345C21.5493 20.4992 20.4649 21.5725 19.1005 21.6723C17.2484 21.8078 14.2327 22 12 22C9.76733 22 6.75159 21.8078 4.89953 21.6723C3.53508 21.5725 2.45075 20.4992 2.33965 19.1345C2.19675 17.3791 2 14.5898 2 12.5128C2 10.4359 2.19675 7.64655 2.33965 5.89119C2.45075 4.52644 3.53507 3.45315 4.89953 3.35331Z" fill="#030D45"/>
<path fill-rule="evenodd" clip-rule="evenodd" d="M8.92308 2C9.34791 2 9.69231 2.3444 9.69231 2.76923V5.33333C9.69231 5.75817 9.34791 6.10256 8.92308 6.10256C8.49824 6.10256 8.15385 5.75817 8.15385 5.33333V2.76923C8.15385 2.3444 8.49824 2 8.92308 2Z" fill="#030D45"/>
<path fill-rule="evenodd" clip-rule="evenodd" d="M15.0769 2C15.5018 2 15.8462 2.3444 15.8462 2.76923L15.8462 5.33333C15.8462 5.75817 15.5018 6.10256 15.0769 6.10256C14.6521 6.10256 14.3077 5.75817 14.3077 5.33333L14.3077 2.76923C14.3077 2.3444 14.6521 2 15.0769 2Z" fill="#030D45"/>
</svg>